<?xml version="1.0" encoding="UTF-8" standalone="no"?>
<!-- Created with Inkscape (http://www.inkscape.org/) -->

<svg
   sodipodi:docname="icons.svg"
   inkscape:version="1.1.1 (3bf5ae0d25, 2021-09-20, custom)"
   id="svg5"
   version="1.1"
   viewBox="0 0 4.4979165 4.4979165"
   height="17"
   width="17"
   xmlns:inkscape="http://www.inkscape.org/namespaces/inkscape"
   xmlns:sodipodi="http://sodipodi.sourceforge.net/DTD/sodipodi-0.dtd"
   xmlns="http://www.w3.org/2000/svg"
   xmlns:svg="http://www.w3.org/2000/svg">
  <sodipodi:namedview
     id="namedview7"
     pagecolor="#505050"
     bordercolor="#ffffff"
     borderopacity="1"
     inkscape:pageshadow="0"
     inkscape:pageopacity="0"
     inkscape:pagecheckerboard="false"
     inkscape:document-units="px"
     showgrid="true"
     units="px"
     width="16px"
     inkscape:zoom="25.318074"
     inkscape:cx="10.348339"
     inkscape:cy="11.296278"
     inkscape:window-width="1920"
     inkscape:window-height="1007"
     inkscape:window-x="0"
     inkscape:window-y="0"
     inkscape:window-maximized="1"
     inkscape:current-layer="layer6">
    <inkscape:grid
       type="xygrid"
       id="grid824"
       spacingx="0.52916665"
       spacingy="0.52916665"
       color="#ffff5f"
       opacity="0.54509804"
       empspacing="2"
       empcolor="#ffffff"
       empopacity="0.42352941"
       originx="0.13229166"
       originy="0.13229166"
       dotted="false" />
    <inkscape:grid
       type="xygrid"
       id="grid1342"
       spacingx="0.26458332"
       spacingy="0.26458332"
       empspacing="0"
       color="#000000"
       opacity="0.49803922"
       empcolor="#ffffff"
       empopacity="0.44705882"
       originx="0.13229166"
       originy="0.13229166" />
  </sodipodi:namedview>
  <defs
     id="defs2" />
  <g
     inkscape:label="burger"
     id="layer1"
     style="display:none"
     inkscape:groupmode="layer">
    <path
       style="fill:none;fill-opacity:1;stroke:#000000;stroke-width:0.529167;stroke-linecap:round;stroke-linejoin:bevel;stroke-miterlimit:4;stroke-dasharray:none;stroke-opacity:1"
       d="M 0.66145831,0.66145831 H 3.8364582"
       id="path1885"
       sodipodi:nodetypes="cc" />
    <path
       style="fill:none;fill-opacity:1;stroke:#000000;stroke-width:0.529167;stroke-linecap:round;stroke-linejoin:bevel;stroke-miterlimit:4;stroke-dasharray:none;stroke-opacity:1"
       d="m 0.6614583,3.8364581 3.1749999,10e-8"
       id="path1889"
       sodipodi:nodetypes="cc" />
    <path
       style="fill:none;fill-opacity:1;stroke:#000000;stroke-width:0.529167;stroke-linecap:round;stroke-linejoin:bevel;stroke-miterlimit:4;stroke-dasharray:none;stroke-opacity:1"
       d="M 0.66145831,2.2489582 H 3.8364581"
       id="path1891"
       sodipodi:nodetypes="cc" />
  </g>
  <g
     inkscape:groupmode="layer"
     id="layer2"
     inkscape:label="back"
     style="display:none">
    <path
       style="fill:none;stroke:#000000;stroke-width:0.529167;stroke-linecap:round;stroke-linejoin:round;stroke-miterlimit:4;stroke-dasharray:none;stroke-opacity:1"
       d="M 3.0427082,0.6614583 1.4552083,2.2489582 3.0427082,3.8364581"
       id="path1262" />
  </g>
  <g
     inkscape:groupmode="layer"
     id="layer3"
     inkscape:label="apply"
     style="display:none">
    <path
       style="fill:none;stroke:#000000;stroke-width:0.529167;stroke-linecap:round;stroke-linejoin:round;stroke-miterlimit:4;stroke-dasharray:none;stroke-opacity:1"
       d="M 3.5718748,0.66145834 1.9843749,3.8364581 1.1906249,2.7781249"
       id="path1686"
       sodipodi:nodetypes="ccc" />
  </g>
  <g
     id="layer4"
     inkscape:label="add"
     style="display:none"
     inkscape:groupmode="layer">
    <path
       id="path2684"
       style="fill:none;stroke:#000000;stroke-width:0.529167;stroke-linecap:round;stroke-linejoin:bevel;stroke-miterlimit:4;stroke-dasharray:none;stroke-opacity:1"
       d="M 2.2489582,0.6614583 V 3.8364581 M 0.6614583,2.2489582 h 3.1749998"
       inkscape:label="path2684" />
  </g>
  <g
     inkscape:groupmode="layer"
     id="g2918"
     inkscape:label="remove"
     style="display:none">
    <path
       style="fill:none;stroke:#000000;stroke-width:0.529167;stroke-linecap:round;stroke-linejoin:bevel;stroke-miterlimit:4;stroke-dasharray:none;stroke-opacity:1"
       d="M 0.6614583,2.2489582 H 3.8364581"
       id="path2914" />
  </g>
  <g
     inkscape:groupmode="layer"
     id="layer5"
     inkscape:label="settings"
     style="display:none">
    <path
       id="path4455"
       style="fill:none;stroke:#000000;stroke-width:0.264583"
       d="M 2.7781249,2.2489582 A 0.52916664,0.52916664 0 0 1 2.2489583,2.7781249 0.52916664,0.52916664 0 0 1 1.7197916,2.2489582 0.52916664,0.52916664 0 0 1 2.2489583,1.7197916 0.52916664,0.52916664 0 0 1 2.7781249,2.2489582 Z m 0.8013734,-0.21318 0.30737,-0.04925 0.02574,-0.00107 0.35255,0.12046 v 0.28608 l -0.35255,0.12046 -0.02574,-0.00107 -0.30737,-0.04925 -0.1288,0.39642 0.27761,0.14083 0.02145,0.01427 0.21442,0.30467 -0.16816,0.23144 -0.35602,-0.10977 -0.0202,-0.01599 -0.21972,-0.22051 -0.33721,0.245 0.14182,0.27711 0.00897,0.02415 -0.00562,0.37252 -0.27208,0.0884 -0.2235,-0.29807 -0.00695,-0.02481 -0.04814,-0.30754 h -0.41682 l -0.04814,0.30754 -0.00695,0.02481 -0.2235,0.29807 -0.27208,-0.0884 -0.00562,-0.37252 0.00897,-0.02415 0.14182,-0.27711 -0.33721,-0.245 -0.21972,0.22051 -0.0202,0.01599 -0.35602003,0.10977 -0.16816,-0.23144 0.21442,-0.30467 0.02145,-0.01427 0.27761003,-0.14083 -0.12880003,-0.39642 -0.30737,0.04925 -0.02574,0.00107 -0.35255,-0.12046 v -0.28608 l 0.35255,-0.12046 0.02574,0.00107 0.30737,0.04925 0.12880003,-0.39642 -0.27761003,-0.14083 -0.02145,-0.01427 -0.21442,-0.30467 0.16816,-0.23143998 0.35602003,0.10976998 0.0202,0.01599 0.21972,0.22051 0.33721,-0.245 -0.14182,-0.27710998 -0.00897,-0.02415 0.00562,-0.37252 0.27208,-0.0884 0.2235,0.29807 0.00695,0.02481 0.04814,0.30754 h 0.41682 l 0.04814,-0.30754 0.00695,-0.02481 0.2235,-0.29807 0.27208,0.0884 0.00562,0.37252 -0.00897,0.02415 -0.14182,0.27710998 0.33721,0.245 0.21972,-0.22051 0.0202,-0.01599 0.35602,-0.10976998 0.16816,0.23143998 -0.21442,0.30467 -0.02145,0.01427 -0.27761,0.14083 z" />
  </g>
  <g
     inkscape:groupmode="layer"
     id="layer6"
     inkscape:label="stop"
     style="display:inline">
    <path
       style="fill:none;stroke:#000000;stroke-width:0.529167;stroke-linecap:round;stroke-linejoin:round;stroke-miterlimit:4;stroke-dasharray:none;stroke-opacity:1"
       d="M 0.6614583,0.6614583 H 3.8364581 V 3.8364581 H 0.6614583 V 0.6614583"
       id="path2027" />
  </g>
  <g
     inkscape:groupmode="layer"
     id="layer7"
     inkscape:label="start"
     style="display:inline">
    <path
       style="display:inline;fill:none;stroke:#000000;stroke-width:0.529167;stroke-linecap:round;stroke-linejoin:round;stroke-miterlimit:4;stroke-dasharray:none;stroke-opacity:1"
       d="M 0.6614583,0.6614583 3.8364581,2.2489582 0.6614583,3.8364581 Z"
       id="path1061" />
  </g>
</svg>
